<?xml version="1.0" standalone="no"?>
<!DOCTYPE svg PUBLIC "-//W3C//DTD SVG 20010904//EN"
 "http://www.w3.org/TR/2001/REC-SVG-20010904/DTD/svg10.dtd">
<svg version="1.0" xmlns="http://www.w3.org/2000/svg"
 width="700.000000pt" height="700.000000pt" viewBox="0 0 700.000000 700.000000"
 preserveAspectRatio="xMidYMid meet">
<metadata>
Created by potrace 1.14, written by Peter Selinger 2001-2017
</metadata>
<g transform="translate(0.000000,700.000000) scale(0.100000,-0.100000)"
fill="#000000" stroke="none">
<path d="M3440 6191 c-14 -5 -86 -36 -160 -69 -735 -327 -1490 -731 -2190
-1170 -270 -169 -724 -474 -769 -515 -74 -70 -90 -165 -44 -258 33 -64 71 -92
162 -119 36 -11 152 -44 256 -75 234 -69 662 -212 892 -298 l173 -64 11 41
c19 70 78 171 135 230 54 56 185 139 514 326 369 210 955 511 1034 531 71 18
137 -2 196 -60 78 -75 90 -176 32 -271 -26 -43 -41 -52 -292 -180 -429 -219
-764 -402 -1071 -586 -115 -69 -129 -86 -129 -160 0 -43 2 -46 38 -61 258
-108 724 -328 1012 -479 161 -84 193 -97 246 -101 l61 -5 389 194 c849 423
1577 710 2459 969 236 69 274 85 308 131 72 98 60 218 -30 300 -98 88 -812
549 -1253 808 -441 259 -1125 613 -1614 834 -244 110 -304 128 -366 107z"/>
<path d="M942 3293 c-43 -527 -69 -1101 -52 -1163 22 -83 72 -119 291 -214
237 -102 409 -182 409 -191 0 -14 -86 -154 -136 -222 -30 -40 -83 -105 -119
-145 -103 -114 -118 -206 -51 -306 75 -111 233 -125 335 -29 53 50 176 200
229 280 63 93 135 224 129 234 -3 5 -91 50 -195 102 l-190 93 28 62 c15 33 41
104 58 157 l31 96 -53 55 c-184 190 -160 500 51 653 l42 30 0 186 1 186 -242
91 c-228 85 -532 192 -547 192 -4 0 -12 -66 -19 -147z"/>
<path d="M5790 3356 c-303 -108 -355 -127 -633 -240 -349 -141 -804 -347
-1032 -466 -395 -207 -480 -240 -625 -240 -135 0 -201 24 -572 211 -274 137
-719 349 -735 349 -2 0 -3 -42 -3 -94 l0 -93 39 -26 c82 -54 152 -171 172
-286 28 -159 -53 -339 -195 -431 -57 -37 -64 -45 -70 -82 -10 -61 -74 -253
-114 -341 -19 -42 -33 -79 -31 -81 2 -1 67 -36 144 -76 313 -163 723 -402
1035 -603 267 -173 256 -167 325 -167 75 0 90 8 320 157 619 402 1393 811
2093 1108 127 54 182 102 202 175 23 86 -46 1311 -74 1310 -6 -1 -117 -38
-246 -84z"/>
</g>
</svg>
